<svg width="38" height="38" viewBox="0 0 38 38" fill="none" xmlns="http://www.w3.org/2000/svg">
<g clip-path="url(#clip0_1_1014)">
<path d="M26.277 37.285C25.8387 37.0917 25.6846 36.7549 25.6961 36.2812C25.7191 35.3616 25.7076 34.441 25.7018 33.5204C25.6932 32.1673 24.7334 31.1759 23.3841 31.1711C20.3372 31.1587 17.2893 31.1587 14.2424 31.1711C12.8922 31.1768 11.9323 32.1673 11.9247 33.5204C11.9189 34.441 11.9084 35.3616 11.9304 36.2812C11.9419 36.753 11.7898 37.0927 11.3496 37.285H10.9189C10.5084 37.0563 10.3783 36.707 10.3907 36.2448C10.4165 35.3367 10.3897 34.4285 10.4003 33.5194C10.4261 31.3022 12.0223 29.6553 14.2414 29.6323C17.2893 29.6007 20.3372 29.6007 23.3851 29.6323C25.6052 29.6553 27.1985 31.3003 27.2263 33.5194C27.2377 34.4276 27.21 35.3367 27.2358 36.2448C27.2492 36.708 27.1152 37.0554 26.7076 37.285H26.277Z" fill="white"/>
<path d="M0.439434 31.3998C0.493023 31.2075 0.543741 31.0142 0.601157 30.8228C1.06719 29.2572 2.53515 28.127 4.18014 28.105C5.71029 28.0849 7.24141 28.0964 8.77252 28.1002C9.28162 28.1012 9.62803 28.4237 9.62325 28.8706C9.61846 29.3223 9.28545 29.6199 8.75721 29.6218C7.34572 29.6266 5.93518 29.6228 4.52368 29.6237C2.90644 29.6247 1.96576 30.5673 1.96385 32.1874C1.96385 32.5816 1.96768 32.9768 1.96194 33.3711C1.95524 33.8123 1.75428 34.1013 1.40595 34.1903C1.03848 34.284 0.754269 34.151 0.508334 33.7692C0.490152 33.7414 0.461443 33.7194 0.438477 33.6955C0.438477 32.93 0.438477 32.1644 0.438477 31.3988L0.439434 31.3998Z" fill="white"/>
<path d="M37.1863 33.6965C37.0169 33.8553 36.8743 34.0735 36.6743 34.1625C36.1997 34.373 35.6915 34.017 35.6695 33.4792C35.6494 33.0017 35.6667 32.5223 35.6609 32.0438C35.6447 30.6065 34.6791 29.6342 33.2446 29.6247C31.7853 29.6161 30.3259 29.6247 28.8676 29.6208C28.3384 29.6189 28.0063 29.3213 28.0025 28.8696C27.9987 28.4869 28.2848 28.1136 28.6743 28.1127C30.4312 28.1098 32.1958 28.038 33.9422 28.1806C35.5748 28.3136 36.7939 29.6017 37.1174 31.2055C37.1308 31.2716 37.1633 31.3347 37.1873 31.3988V33.6955L37.1863 33.6965Z" fill="white"/>
<path d="M18.8061 27.3261C16.2769 27.3222 14.2204 25.2677 14.2195 22.7413C14.2176 20.2226 16.2807 18.1509 18.8004 18.1403C21.3267 18.1298 23.411 20.2179 23.4052 22.7528C23.3995 25.2772 21.3353 27.328 18.8061 27.3251V27.3261ZM18.8013 19.6858C17.1162 19.6915 15.7449 21.0628 15.7468 22.7413C15.7487 24.416 17.1296 25.7969 18.8052 25.7997C20.498 25.8026 21.8952 24.4016 21.877 22.7193C21.8588 21.0313 20.4894 19.6801 18.8013 19.6848V19.6858Z" fill="white"/>
<path d="M3.51025 23.4945C3.51503 21.8093 4.89016 20.4351 6.56482 20.4389C8.25766 20.4428 9.63566 21.8361 9.62418 23.5327C9.61269 25.2064 8.21364 26.5873 6.54472 26.5711C4.85954 26.5548 3.50451 25.1806 3.50929 23.4954L3.51025 23.4945ZM6.57343 25.0275C7.41937 25.0227 8.10455 24.3337 8.09785 23.4945C8.09115 22.6514 7.40406 21.9777 6.55429 21.9815C5.70835 21.9854 5.02988 22.6686 5.03371 23.5136C5.03849 24.3548 5.72653 25.0323 6.57343 25.0275Z" fill="white"/>
<path d="M34.1154 23.504C34.1154 25.1902 32.7527 26.5624 31.0704 26.5701C29.3852 26.5777 27.9938 25.1796 28.0015 23.4858C28.0092 21.8102 29.3967 20.4322 31.0704 20.4389C32.7518 20.4447 34.1154 21.8179 34.1154 23.504ZM31.0503 25.0275C31.8972 25.0323 32.5862 24.3557 32.592 23.5155C32.5977 22.6724 31.9173 21.9863 31.0733 21.9815C30.2254 21.9767 29.5374 22.6495 29.5288 23.4925C29.5202 24.3299 30.2073 25.0227 31.0503 25.0275Z" fill="white"/>
<path d="M30.3105 6.69431L32.6748 9.2529L32.2637 9.83493H30.6992V9.48044C30.6921 9.47474 29.9872 8.91024 29.2373 8.91013C28.4836 8.91013 28.084 9.45797 28.084 9.86911C28.084 10.2802 28.5061 10.7827 29.2256 11.2509C30.105 11.822 31.6465 12.8845 32.2861 13.3642C32.96 13.8553 34.0342 14.7 34.708 15.2939C35.7929 16.2418 36.0781 16.8476 36.0781 16.8476L33.9199 16.4931L34.1367 16.0478C34.1367 16.0478 33.7144 15.6593 33.1777 15.2939C32.7095 14.9742 32.1382 14.6771 31.7842 14.54C31.019 14.2431 30.1276 13.992 29.4424 13.9121C28.7572 13.8321 27.9806 13.7524 27.0557 13.958C26.1306 14.1636 25.6396 14.5976 25.6396 14.5976L24.874 14.0263C24.8548 14.0329 23.5949 14.4599 22.0762 14.4599C20.8199 14.4599 19.506 14.1524 18.6494 13.8554C18.0443 13.6499 17.6787 13.4101 17.6787 13.4101C17.6568 13.4325 16.7893 14.3006 14.2305 14.3008C12.5659 14.3008 11.945 14.2105 11.9346 14.209C11.9346 14.209 10.8718 15.1685 9.36426 15.8652C7.85704 16.5617 6.74943 16.87 5.53906 16.8701C3.95156 16.8472 2.86621 16.333 2.86621 16.333L5.10449 15.8076V16.2988C5.10449 16.2988 6.21265 16.2075 7.25195 15.7392C8.29112 15.271 8.81663 14.7801 9.27344 14.289C9.73022 13.798 9.9244 13.5464 10.0957 13.3408C10.2638 13.1279 10.3881 12.9592 10.3926 12.9531C10.3926 12.9531 11.1125 12.8726 11.6836 12.3701C12.2546 11.8674 12.94 10.7142 13.1455 10.3945C13.3511 10.0746 13.6705 9.37751 14.3213 8.95505C14.9718 8.53288 15.611 8.53317 15.7715 8.53317C17.1763 8.53317 18.4788 9.86911 20.3633 9.86911C21.4595 9.86903 22.6928 9.32126 23.4922 8.72751C24.2917 8.13362 24.6804 7.79041 25.1943 7.35641C25.7198 6.92233 26.9989 5.9863 28.1865 5.9863C28.5293 5.98633 29.4199 6.07712 29.4199 6.07712L30.1396 5.15231L30.3105 6.69431ZM7.26367 6.66013C8.17723 6.62597 8.95384 7.15102 9.20508 7.28806C9.45643 7.42518 10.29 7.9847 10.5869 8.11032C10.8839 8.22453 10.9752 8.28122 11.4092 8.28122C11.8432 8.28122 11.9921 8.21349 12.2891 8.08786C12.5745 7.95087 12.9168 7.80178 13.5674 7.80173C14.4468 7.80173 15.0986 8.07614 15.0986 8.07614C15.0986 8.07614 14.2076 8.04215 12.9971 8.68161C11.7867 9.32107 11.1353 9.7547 10.4502 9.75485C9.75367 9.75485 9.22801 9.18423 8.72559 8.76169C8.23449 8.33911 7.94819 8.2478 7.83398 8.20212C7.72238 8.15754 7.53498 8.12357 7.52637 8.12204C7.53379 8.12199 7.69172 8.11997 7.92578 8.04196C8.16562 7.96202 8.28027 7.89352 8.28027 7.89352C8.28027 7.89352 7.95962 7.45929 7.16016 7.32224C6.52069 7.23096 5.77832 7.28806 5.77832 7.28806C5.77832 7.28806 6.35 6.69439 7.26367 6.66013ZM27.1924 3.80466C28.7871 3.80466 29.979 4.96961 30.002 4.99216L29.374 5.60934C29.374 5.60934 29.1572 5.34696 27.9238 5.35837C27.7069 5.35837 27.1017 5.36959 26.1768 5.75778C25.2517 6.14607 23.7441 7.32236 22.6934 8.07614C21.6541 8.82992 20.9798 8.89841 20.3174 8.89841C19.676 8.8984 19.2563 8.7542 19.2441 8.74997C19.2524 8.75185 19.444 8.79145 20.2031 8.62399C20.9681 8.45272 21.3451 8.24748 21.7676 7.85934C22.1868 7.47414 22.696 6.77386 22.7041 6.76266L21.7793 6.85446C21.7793 6.85446 22.0424 6.55726 22.8076 6.02048C23.4471 5.57517 23.835 5.40329 23.835 5.40329L23.458 5.00388C23.458 5.00388 24.8399 3.8048 27.1924 3.80466Z" fill="white"/>
</g>
<defs>
<clipPath id="clip0_1_1014">
<rect width="36.7467" height="36.7467" fill="white" transform="translate(0.439453 0.538269)"/>
</clipPath>
</defs>
</svg>
