<svg width="151" height="30" viewBox="0 0 151 30" fill="none" xmlns="http://www.w3.org/2000/svg">
<path fill-rule="evenodd" clip-rule="evenodd" d="M137.652 3.46728L136.271 4.79796C136.271 4.79796 135.794 4.23119 133.085 4.25583C132.608 4.25583 131.278 4.28048 129.245 5.11832C127.61 5.79271 125.144 7.56873 123.041 9.08417C122.532 9.45145 122.043 9.80343 121.593 10.1207C119.31 11.7471 117.83 11.895 116.374 11.895C114.944 11.895 114.015 11.5746 114.015 11.5746C114.015 11.5746 114.417 11.6732 116.123 11.3036C117.804 10.9339 118.632 10.4904 119.56 9.65252C120.489 8.81468 121.618 7.28685 121.618 7.28685L119.586 7.48399C119.586 7.48399 120.163 6.84328 121.843 5.68509C123.249 4.72404 124.102 4.3544 124.102 4.3544L123.273 3.49191C123.273 3.49191 126.31 0.904469 131.479 0.904469C135.017 0.904469 137.652 3.46728 137.652 3.46728ZM78.0337 27.9373L82.9518 26.8037V27.8633C82.9518 27.8633 85.3859 27.6663 87.669 26.6559C89.9521 25.6455 91.1073 24.5859 92.1099 23.5263C92.9313 22.6592 93.3662 22.1387 93.703 21.7351C93.7785 21.6454 93.8479 21.5615 93.9174 21.481C94.2934 21.0128 94.5697 20.6431 94.5697 20.6431C94.5697 20.6431 96.1507 20.4706 97.404 19.3864C98.5002 18.439 99.7883 16.4189 100.398 15.4638C100.486 15.326 100.56 15.2102 100.616 15.1232C100.696 15.0009 100.785 14.8529 100.883 14.6872C101.341 13.9186 102.025 12.7683 103.201 12.0183C104.631 11.1065 106.037 11.1065 106.387 11.1065C107.817 11.1065 109.199 11.7255 110.681 12.3899C112.398 13.1593 114.253 13.9897 116.474 13.9897C118.882 13.9897 121.593 12.8068 123.349 11.5254C124.868 10.417 125.712 9.71417 126.642 8.93849L126.644 8.93739C126.789 8.81675 126.935 8.69435 127.088 8.56835C128.241 7.63196 131.053 5.61127 133.662 5.61127C134.414 5.61127 136.371 5.80842 136.371 5.80842L137.952 3.81239L138.328 7.13911L143.522 12.659L142.619 13.9158H139.181V13.1518C139.181 13.1518 137.626 11.9197 135.969 11.9197C134.314 11.9197 133.436 13.1026 133.436 13.9897C133.436 14.8768 134.364 15.961 135.945 16.9714C137.876 18.2035 141.265 20.4953 142.669 21.5302C144.149 22.5899 146.508 24.4134 147.989 25.6948C150.372 27.7401 151 29.0462 151 29.0462L146.257 28.2823L146.734 27.3212C146.734 27.3212 145.806 26.4834 144.626 25.6948C143.598 25.0048 142.343 24.3641 141.565 24.0684C139.885 23.4277 137.928 22.8856 136.422 22.7131C134.915 22.5406 133.211 22.3681 131.178 22.8116C129.146 23.2552 128.066 24.1916 128.066 24.1916L126.385 22.9595C126.385 22.9595 123.599 23.8959 120.238 23.8959C117.478 23.8959 114.592 23.2306 112.711 22.5899C111.381 22.1463 110.577 21.6289 110.577 21.6289C110.577 21.6289 108.696 23.551 103 23.551C99.3111 23.551 97.9566 23.3538 97.9566 23.3538C97.9566 23.3538 95.6237 25.4238 92.3107 26.9269C88.9993 28.4302 86.5652 29.0955 83.9061 29.0955C80.418 29.0462 78.0337 27.9373 78.0337 27.9373ZM84.4331 8.42031C84.4331 8.42031 85.6879 7.13891 87.6947 7.06499C89.4734 6.99948 91.0152 7.8821 91.7279 8.28972C91.82 8.34211 91.897 8.38664 91.9604 8.42031C92.1643 8.52943 92.5418 8.76268 92.9706 9.02723C93.703 9.47961 94.5848 10.0235 94.9955 10.1946C95.068 10.2217 95.1344 10.2474 95.1963 10.2716C95.7022 10.4667 95.9544 10.5642 96.803 10.5642C97.7271 10.5642 98.0623 10.425 98.6769 10.1691L98.7343 10.1453C99.3624 9.84957 100.114 9.52922 101.544 9.52922C103.477 9.52922 104.907 10.1206 104.907 10.1206C104.907 10.1206 102.95 10.0467 100.291 11.4267C99.8169 11.6726 99.3806 11.9045 98.9774 12.1195C97.1186 13.1107 95.9317 13.7431 94.695 13.7431C93.3949 13.7431 92.3681 12.855 91.4108 12.0288C91.2402 11.8819 91.0725 11.7369 90.9064 11.5992C89.9083 10.7561 89.2968 10.5241 89.0129 10.4159C88.9887 10.4071 88.9676 10.3991 88.9495 10.3917C88.6988 10.2931 88.2715 10.2192 88.2715 10.2192C88.2715 10.2192 88.6233 10.2192 89.1503 10.0467C89.6773 9.87422 89.928 9.72637 89.928 9.72637C89.928 9.72637 89.2243 8.78995 87.4682 8.49425C86.0639 8.2971 84.4331 8.42031 84.4331 8.42031Z" fill="white"/>
<path d="M55.2303 19.5422H50.5256L48.6487 26.6671C48.6487 26.6671 50.4255 27.8292 56.5816 27.8292C58.2834 27.8292 59.3845 27.8292 60.8108 27.5512C63.7138 26.9954 65.5906 25.7069 66.8919 24.4436C69.395 22.0182 69.6698 19.6181 69.6698 19.037C69.6698 18.9955 69.6714 18.9388 69.6744 18.8687C69.7 18.2566 69.7695 16.625 68.6687 15.1968C67.6566 13.8856 66.1342 13.1042 64.7468 12.3921C64.3163 12.1711 63.8988 11.9569 63.5136 11.7355C61.887 10.8007 61.6366 9.99219 61.6366 9.25951C61.6366 7.81941 63.5886 7.28884 64.7148 7.28884C65.3654 7.28884 66.4665 7.74361 66.4665 7.74361V9.61321L70.9216 9.58794C70.9216 9.58794 70.9956 8.37524 71.4471 6.10139C71.8971 3.85282 72.7472 2.76643 72.7472 2.76643C72.7472 2.76643 69.7197 1.78111 65.5155 1.78111C57.8579 1.78111 53.0281 5.34345 53.0281 10.169C53.0281 14.3689 55.7384 15.774 57.6003 16.7391C57.8553 16.8712 58.0943 16.9951 58.3083 17.1168C59.9599 18.077 60.9109 18.7844 60.9109 20.1991C60.9109 21.5382 59.7348 22.1951 57.5076 22.1951C55.3054 22.1951 55.2303 22.0182 55.2303 22.0182V19.5422Z" fill="white"/>
<path d="M0.900865 27.6447L2.3023 23.0717H5.03011L8.3583 7.91284H6.03109L5.38043 10.4646H0L1.87693 2.65775H25.4755L23.8239 10.4646H18.3433L18.8188 8.01389H16.6166L12.963 23.0717H16.3914L15.4905 27.6447H0.900865Z" fill="white"/>
<path d="M29.4796 27.6447L28.3535 7.1549H26.2263V2.65775H39.9151V7.35701H36.6116V19.7621L43.6688 7.1549H41.2164V2.65775H53.854L38.7388 27.6447H29.4796Z" fill="white"/>
</svg>
