<svg width="34" height="34" viewBox="0 0 34 34" fill="none" xmlns="http://www.w3.org/2000/svg">
<path d="M0.439453 29.4349C0.63124 28.7309 0.823028 28.0261 1.01396 27.3221C1.10985 26.968 1.1792 26.6055 1.30164 26.2607C1.77768 24.919 2.70751 24.0028 4.07742 23.5429C5.82405 22.9564 7.57668 22.3875 9.33273 21.8287C9.79936 21.6802 10.1418 21.4117 10.3747 21.0022C10.8088 20.2404 10.921 19.4005 10.9578 18.548C10.9621 18.4557 10.8653 18.3516 10.7977 18.266C10.3336 17.6812 9.83703 17.119 9.40808 16.5107C9.10242 16.0761 8.98512 15.5533 8.98084 15.018C8.97913 14.7537 8.91919 14.5364 8.6435 14.3971C8.52962 14.3392 8.43972 14.1772 8.40034 14.0447C8.18287 13.313 7.96282 12.5805 7.78474 11.8396C7.65802 11.3101 7.85238 10.8545 8.24451 10.4694C8.32414 10.3914 8.38493 10.2596 8.39092 10.1489C8.43031 9.35343 8.49794 8.55632 8.47226 7.76172C8.42602 6.29502 8.93289 5.02887 9.81905 3.88857C11.004 2.36482 12.4972 1.28578 14.4502 0.898968C14.618 0.866244 14.785 0.834359 14.9519 0.801636H16.3004C16.7379 0.886382 17.1823 0.949312 17.613 1.05923C18.7029 1.33696 19.7038 1.81188 20.3785 2.71555C20.8562 3.35576 21.3057 3.99681 21.8785 4.57241C22.4941 5.19081 22.5643 6.0668 22.5832 6.90167C22.6063 7.97065 22.5849 9.04046 22.6003 10.1103C22.602 10.2454 22.6962 10.3863 22.7715 10.5113C22.906 10.7354 23.09 10.9342 23.1962 11.1692C23.3632 11.54 23.1791 11.9336 22.8161 12.0804C22.4642 12.2231 22.1106 12.0611 21.9273 11.6894C21.8854 11.6047 21.8109 11.5107 21.7278 11.4763C21.31 11.3018 21.2287 11.2053 21.227 10.7455C21.2227 9.61271 21.2347 8.4808 21.2201 7.34806C21.215 6.93104 21.1773 6.51067 21.1122 6.09784C21.0318 5.58517 20.7715 5.17906 20.2663 4.95251C19.9127 4.79393 19.7261 4.5271 19.6353 4.14113C19.5745 3.88354 19.3939 3.62678 19.2021 3.4296C18.4675 2.6736 17.5119 2.35391 16.4879 2.2054C13.6051 1.7867 10.5288 3.89277 9.92436 6.69526C9.9021 6.79763 9.88327 6.90167 9.87899 7.00572C9.83446 8.17874 9.78052 9.35259 9.75826 10.5265C9.7497 10.9972 9.66922 11.3865 9.06731 11.5325C9.24198 12.14 9.40465 12.7215 9.57932 13.3004C9.60158 13.3734 9.6735 13.438 9.73429 13.4934C10.0828 13.8064 10.3122 14.2049 10.3131 14.6505C10.3139 15.6884 10.885 16.4201 11.5614 17.114C11.6205 17.1744 11.6736 17.2457 11.7446 17.2894C12.2883 17.6241 12.3834 18.1133 12.3345 18.704C12.2549 19.6622 12.1145 20.5986 11.6684 21.4671C11.2506 22.281 10.6153 22.8406 9.71374 23.1251C8.01591 23.6612 6.32921 24.2293 4.63566 24.7764C3.49349 25.1447 2.78285 25.8957 2.49774 27.0377C2.33763 27.677 2.17667 28.3164 2.00543 28.9961H2.40955C6.68966 28.9961 10.9689 28.9961 15.249 28.9961C15.3663 28.9961 15.4853 28.9893 15.6018 29.0028C15.9657 29.0422 16.2354 29.3443 16.2225 29.6874C16.2097 30.0239 15.9451 30.2941 15.5915 30.3268C15.4956 30.3352 15.3989 30.3335 15.303 30.3335C10.659 30.3335 6.01584 30.3302 1.37185 30.3402C0.959163 30.3411 0.645796 30.2354 0.441166 29.8779V29.4374L0.439453 29.4349Z" fill="white"/>
<path d="M24.9056 33.0216C23.9278 32.4678 22.9107 31.9711 21.9817 31.3468C20.1109 30.0899 18.5749 28.5208 17.6331 26.4575C17.1511 25.402 16.8874 24.2961 16.8822 23.1399C16.8728 21.2637 16.8779 19.3875 16.8797 17.5114C16.8797 17.0608 17.0243 16.8628 17.4567 16.7193C19.8738 15.9188 22.2891 15.1142 24.7121 14.3313C24.9458 14.2558 25.2472 14.2516 25.4801 14.3271C27.8826 15.1024 30.2808 15.8945 32.6721 16.7034C32.9127 16.7847 33.1045 17.0063 33.3186 17.1632V23.7079C33.2989 23.7885 33.28 23.869 33.2603 23.9496C33.0977 24.62 32.9966 25.3122 32.7595 25.9558C32.0146 27.9813 30.6113 29.5294 28.9186 30.8492C27.8021 31.7202 26.576 32.4183 25.2918 33.0207H24.9065L24.9056 33.0216ZM31.9983 20.9239L31.9529 20.9222C31.9529 20.0001 31.9461 19.0771 31.9581 18.1549C31.9606 17.9401 31.893 17.8487 31.6832 17.7799C29.5864 17.096 27.4956 16.3963 25.3979 15.7149C25.2233 15.6579 24.9964 15.6554 24.8226 15.7116C22.7249 16.3921 20.6332 17.0918 18.5364 17.7757C18.3232 17.8453 18.2359 17.9292 18.2376 18.1642C18.2496 19.7467 18.2427 21.33 18.2444 22.9125C18.2461 24.3531 18.646 25.6831 19.4337 26.8972C20.789 28.9865 22.7334 30.4096 24.9424 31.5222C25.04 31.5717 25.2155 31.549 25.3217 31.4961C26.9314 30.6848 28.3955 29.6762 29.6215 28.3614C30.7611 27.1397 31.6302 25.7603 31.8382 24.0897C31.9683 23.0434 31.9512 21.9794 32 20.923L31.9983 20.9239Z" fill="white"/>
<path d="M24.4776 24.6244C25.8535 23.276 27.1986 21.957 28.5446 20.638C28.6276 20.5566 28.7089 20.471 28.8031 20.4039C29.0788 20.205 29.4436 20.2327 29.6824 20.4618C29.9196 20.6892 29.9556 21.0516 29.7595 21.3235C29.6987 21.4082 29.6199 21.4821 29.5446 21.5559C28.048 23.0235 26.5513 24.491 25.053 25.9577C24.541 26.4594 24.1891 26.4359 23.7302 25.8738C22.8817 24.835 22.0341 23.7954 21.1856 22.7566C20.9792 22.5041 20.9124 22.233 21.088 21.9436C21.2472 21.6818 21.5032 21.5568 21.7969 21.639C21.9767 21.6893 22.1608 21.8185 22.2815 21.962C22.9485 22.7541 23.5966 23.5605 24.2516 24.3618C24.3175 24.4423 24.3877 24.5187 24.4785 24.6236L24.4776 24.6244Z" fill="white"/>
</svg>
