<svg width="28" height="28" viewBox="0 0 28 28" fill="none" xmlns="http://www.w3.org/2000/svg">
<path opacity="0.6" d="M16.2061 4.6665C16.2994 5.0165 16.3344 5.4015 16.3344 5.83317V9.33317H22.1677V6.99984C22.1677 5.7165 21.1177 4.6665 19.8344 4.6665H16.2061Z" fill="white"/>
<path d="M16.3344 22.1668V9.3335H22.1677C24.5011 9.3335 25.6677 10.5002 25.6677 12.8335V22.1668C25.6677 24.5002 24.5011 25.6668 22.1677 25.6668H12.8344C15.1677 25.6668 16.3344 24.5002 16.3344 22.1668ZM20.1261 19.8335C20.1261 20.3118 20.5227 20.7085 21.0011 20.7085C21.4794 20.7085 21.8761 20.3118 21.8761 19.8335V15.1668C21.8761 14.6885 21.4794 14.2918 21.0011 14.2918C20.5227 14.2918 20.1261 14.6885 20.1261 15.1668V19.8335Z" fill="white"/>
<path opacity="0.4" d="M11.6676 25.6668H12.8342C15.1676 25.6668 16.3342 24.5002 16.3342 22.1668V5.8335C16.3342 3.50016 15.1676 2.3335 12.8342 2.3335H5.83423C3.5009 2.3335 2.33423 3.50016 2.33423 5.8335V22.1668C2.33423 24.5002 3.5009 25.6668 5.83423 25.6668H7.0009" fill="white"/>
<path d="M7.00106 21.0002V25.6668H11.6677V21.0002C11.6677 20.3585 11.1427 19.8335 10.5011 19.8335H8.16772C7.52606 19.8335 7.00106 20.3585 7.00106 21.0002Z" fill="white"/>
<path d="M11.6677 16.0418C12.1461 16.0418 12.5427 15.6452 12.5427 15.1668V9.3335C12.5427 8.85516 12.1461 8.4585 11.6677 8.4585C11.1894 8.4585 10.7927 8.85516 10.7927 9.3335V15.1668C10.7927 15.6452 11.1894 16.0418 11.6677 16.0418Z" fill="white"/>
<path d="M7.00122 16.0418C7.47955 16.0418 7.87622 15.6452 7.87622 15.1668V9.3335C7.87622 8.85516 7.47955 8.4585 7.00122 8.4585C6.52289 8.4585 6.12622 8.85516 6.12622 9.3335V15.1668C6.12622 15.6452 6.52289 16.0418 7.00122 16.0418Z" fill="white"/>
</svg>
