<svg width="27" height="27" viewBox="0 0 27 27" fill="none" xmlns="http://www.w3.org/2000/svg">
<path opacity="0.3" d="M20.25 9C22.114 9 23.625 10.511 23.625 12.375C23.625 14.239 22.114 15.75 20.25 15.75C18.386 15.75 16.875 14.239 16.875 12.375C16.875 10.511 18.386 9 20.25 9ZM10.125 3.375C12.6103 3.375 14.625 5.38972 14.625 7.875C14.625 10.3603 12.6103 12.375 10.125 12.375C7.63972 12.375 5.625 10.3603 5.625 7.875C5.625 5.38972 7.63972 3.375 10.125 3.375Z" fill="white"/>
<path d="M10.1062 14.625C15.4924 14.6251 19.918 17.2048 20.2478 22.7246C20.2609 22.9445 20.2472 23.625 19.4021 23.625H0.818116C0.535952 23.6249 -0.0230169 23.0161 0.000733453 22.7236C0.437016 17.3547 4.79476 14.625 10.1062 14.625ZM19.8005 16.877C23.6329 16.9188 26.7623 18.8553 26.9978 22.9502C27.0073 23.1154 26.9974 23.6249 26.3875 23.625H22.0496C22.0495 21.0931 21.2122 18.7569 19.8005 16.877Z" fill="white"/>
</svg>
