<svg width="225" height="32" viewBox="0 0 225 32" fill="none" xmlns="http://www.w3.org/2000/svg">
<path d="M127.982 11.8626V27.538C127.982 28.4561 127.492 29.3365 126.621 29.9857C125.75 30.6348 124.569 30.9995 123.337 30.9995H101.663C100.431 30.9995 99.2495 30.6348 98.3784 29.9857C97.5074 29.3365 97.0181 28.4561 97.0181 27.538V4.46148C97.0181 3.54344 97.5074 2.663 98.3784 2.01384C99.2495 1.36469 100.431 1 101.663 1H112.984C113.805 1.00009 112.826 1.24314 113.407 1.67571L127.075 11.8626C127.656 12.2952 127.982 11.2507 127.982 11.8626Z" fill="#EB5757" stroke="#EB5757" stroke-width="1.87498" stroke-linejoin="round"/>
<path d="M113.468 1C113.468 4.30325 113.468 9.45851 113.468 9.45851C113.468 10.0567 113.789 10.6305 114.363 11.0535C114.936 11.4765 115.713 11.7141 116.523 11.7141H127.982" fill="#F9A2A2"/>
<path d="M113.468 1C113.468 4.30325 113.468 9.45851 113.468 9.45851C113.468 10.0567 113.789 10.6305 114.363 11.0535C114.936 11.4765 115.713 11.7141 116.523 11.7141H127.982L113.468 1Z" stroke="#F9A2A2" stroke-width="1.87498" stroke-linecap="round" stroke-linejoin="round"/>
<path d="M107.022 29.7085V22.6086H110.002C110.322 22.6086 110.616 22.6752 110.882 22.8086C111.149 22.9419 111.382 23.1186 111.582 23.3386C111.782 23.5586 111.936 23.8052 112.042 24.0786C112.149 24.3519 112.202 24.6319 112.202 24.9186C112.202 25.3119 112.112 25.6885 111.932 26.0485C111.759 26.4019 111.509 26.6885 111.182 26.9085C110.862 27.1285 110.489 27.2385 110.062 27.2385H108.142V29.7085H107.022ZM108.142 26.2485H109.992C110.206 26.2485 110.392 26.1919 110.552 26.0785C110.712 25.9585 110.836 25.7985 110.922 25.5985C111.016 25.3985 111.062 25.1719 111.062 24.9186C111.062 24.6586 111.009 24.4286 110.902 24.2286C110.796 24.0286 110.656 23.8752 110.482 23.7686C110.316 23.6552 110.132 23.5986 109.932 23.5986H108.142V26.2485ZM113.253 29.7085V22.6086H115.773C116.539 22.6086 117.179 22.7686 117.693 23.0886C118.206 23.4019 118.589 23.8286 118.843 24.3686C119.103 24.9019 119.233 25.4952 119.233 26.1485C119.233 26.8685 119.089 27.4952 118.803 28.0285C118.523 28.5618 118.123 28.9752 117.603 29.2685C117.083 29.5618 116.473 29.7085 115.773 29.7085H113.253ZM118.093 26.1485C118.093 25.6485 117.999 25.2086 117.813 24.8286C117.633 24.4419 117.369 24.1419 117.023 23.9286C116.683 23.7086 116.266 23.5986 115.773 23.5986H114.373V28.7185H115.773C116.273 28.7185 116.693 28.6052 117.033 28.3785C117.379 28.1518 117.643 27.8452 117.823 27.4585C118.003 27.0719 118.093 26.6352 118.093 26.1485ZM120.411 29.7085V22.6086H125.141V23.5986H121.531V25.7185H124.551V26.6485H121.531V29.7085H120.411Z" fill="#F2F2F2"/>
</svg>
